<svg width="300" height="404" viewBox="0 0 300 404" fill="none" xmlns="http://www.w3.org/2000/svg">
<path fill-rule="evenodd" clip-rule="evenodd" d="M127.682 23.1346C167.227 24.6216 206.608 30.4941 237.141 55.5533C270.88 83.2439 301.551 121.011 299.939 164.509C298.358 207.173 264.002 240.551 229.353 265.713C200.109 286.951 163.756 292.608 127.682 289.606C94.9803 286.884 62.926 275.007 41.7018 250.094C21.8871 226.835 25.8667 194.635 21.1092 164.509C14.7266 124.093 -15.0399 79.7222 9.62854 46.9983C34.6823 13.7631 85.9686 21.5661 127.682 23.1346Z" fill="#4CA6A8"/>
<path d="M185.364 67.9044H184.106V33.4425C184.106 30.8232 183.59 28.2295 182.588 25.8095C181.585 23.3895 180.116 21.1906 178.264 19.3384C176.412 17.4861 174.213 16.0168 171.793 15.0144C169.374 14.0119 166.78 13.4959 164.161 13.4958H91.1479C85.8579 13.4958 80.7847 15.5972 77.0441 19.3378C73.3036 23.0783 71.2021 28.1516 71.2021 33.4415V222.503C71.2021 227.793 73.3036 232.867 77.0441 236.607C80.7847 240.348 85.8579 242.449 91.1479 242.449H164.161C169.45 242.449 174.524 240.348 178.264 236.607C182.005 232.867 184.106 227.793 184.106 222.503V92.435H185.365L185.364 67.9044Z" fill="#3F3D56"/>
<path d="M179.861 33.5816V222.365C179.861 226.315 178.291 230.104 175.498 232.897C172.704 235.691 168.916 237.26 164.965 237.26H91.6023C87.6517 237.26 83.863 235.691 81.0695 232.897C78.276 230.104 76.7066 226.315 76.7065 222.365V33.5816C76.7069 29.6313 78.2764 25.8429 81.0697 23.0496C83.8631 20.2564 87.6516 18.6871 91.602 18.6869H100.502C100.065 19.7615 99.8983 20.9272 100.017 22.0813C100.136 23.2354 100.537 24.3427 101.184 25.3056C101.831 26.2685 102.705 27.0576 103.729 27.6035C104.753 28.1494 105.895 28.4353 107.055 28.4361H148.883C150.043 28.4352 151.186 28.1493 152.209 27.6034C153.233 27.0574 154.107 26.2683 154.754 25.3054C155.401 24.3425 155.802 23.2353 155.921 22.0812C156.04 20.9271 155.873 19.7615 155.436 18.6869H164.965C168.916 18.687 172.704 20.2564 175.498 23.0499C178.291 25.8433 179.861 29.6321 179.861 33.5826V33.5816Z" fill="white"/>
<path d="M86.9462 37.5128C87.3553 37.5128 87.687 37.1812 87.687 36.772C87.687 36.3628 87.3553 36.0311 86.9462 36.0311C86.537 36.0311 86.2053 36.3628 86.2053 36.772C86.2053 37.1812 86.537 37.5128 86.9462 37.5128Z" fill="#3F3D56"/>
<path d="M89.6627 37.5128C90.0719 37.5128 90.4036 37.1812 90.4036 36.772C90.4036 36.3628 90.0719 36.0311 89.6627 36.0311C89.2536 36.0311 88.9219 36.3628 88.9219 36.772C88.9219 37.1812 89.2536 37.5128 89.6627 37.5128Z" fill="#3F3D56"/>
<path d="M92.3795 37.5128C92.7887 37.5128 93.1204 37.1812 93.1204 36.772C93.1204 36.3628 92.7887 36.0311 92.3795 36.0311C91.9704 36.0311 91.6387 36.3628 91.6387 36.772C91.6387 37.1812 91.9704 37.5128 92.3795 37.5128Z" fill="#3F3D56"/>
<path d="M169.931 34.7964H162.274V35.7843H169.931V34.7964Z" fill="#3F3D56"/>
<path d="M169.931 36.2781H162.274V37.2659H169.931V36.2781Z" fill="#3F3D56"/>
<path d="M169.931 37.7602H162.274V38.748H169.931V37.7602Z" fill="#3F3D56"/>
<path d="M130.681 49.5477H93.1425C91.4709 49.5496 89.8682 50.3177 88.686 51.6834C87.5037 53.0492 86.8384 54.9012 86.8359 56.8332V147.555H158.314V81.4862C158.306 73.0186 155.392 64.9006 150.211 58.9131C145.031 52.9256 138.007 49.5575 130.681 49.5477Z" fill="white"/>
<path d="M145.942 139.388H99.2085C98.8045 139.388 98.4171 139.583 98.1314 139.931C97.8458 140.279 97.6853 140.751 97.6853 141.244C97.6853 141.736 97.8458 142.208 98.1314 142.556C98.4171 142.904 98.8045 143.1 99.2085 143.1H145.942C146.346 143.1 146.733 142.904 147.019 142.556C147.304 142.208 147.465 141.736 147.465 141.244C147.465 140.751 147.304 140.279 147.019 139.931C146.733 139.583 146.346 139.388 145.942 139.388Z" fill="#E4E4E4"/>
<path d="M145.942 165.374H99.2085C98.8045 165.374 98.4171 165.57 98.1314 165.918C97.8458 166.266 97.6853 166.738 97.6853 167.231C97.6853 167.723 97.8458 168.195 98.1314 168.543C98.4171 168.891 98.8045 169.087 99.2085 169.087H145.942C146.346 169.087 146.733 168.891 147.019 168.543C147.304 168.195 147.465 167.723 147.465 167.231C147.465 166.738 147.304 166.266 147.019 165.918C146.733 165.57 146.346 165.374 145.942 165.374Z" fill="#E4E4E4"/>
<path d="M145.942 195.073H99.2085C98.8045 195.073 98.4171 195.269 98.1314 195.617C97.8458 195.965 97.6853 196.437 97.6853 196.93C97.6853 197.422 97.8458 197.894 98.1314 198.242C98.4171 198.59 98.8045 198.786 99.2085 198.786H145.942C146.346 198.786 146.733 198.59 147.019 198.242C147.304 197.894 147.465 197.422 147.465 196.93C147.465 196.437 147.304 195.965 147.019 195.617C146.733 195.269 146.346 195.073 145.942 195.073Z" fill="#E4E4E4"/>
<path d="M145.94 132.705H99.2099C98.8056 132.705 98.4178 132.901 98.1319 133.249C97.8459 133.597 97.6853 134.069 97.6853 134.562C97.6853 135.054 97.8459 135.526 98.1319 135.874C98.4178 136.222 98.8056 136.418 99.2099 136.418H145.94C146.344 136.418 146.732 136.222 147.018 135.874C147.304 135.526 147.465 135.054 147.465 134.562C147.465 134.069 147.304 133.597 147.018 133.249C146.732 132.901 146.344 132.705 145.94 132.705Z" fill="#E4E4E4"/>
<path d="M145.94 158.692H99.2099C98.8056 158.692 98.4178 158.888 98.1319 159.236C97.8459 159.584 97.6853 160.056 97.6853 160.548C97.6853 161.041 97.8459 161.513 98.1319 161.861C98.4178 162.209 98.8056 162.404 99.2099 162.404H145.94C146.344 162.404 146.732 162.209 147.018 161.861C147.304 161.513 147.465 161.041 147.465 160.548C147.465 160.056 147.304 159.584 147.018 159.236C146.732 158.888 146.344 158.692 145.94 158.692Z" fill="#E4E4E4"/>
<path d="M145.94 187.649H99.2099C98.8056 187.649 98.4178 187.844 98.1319 188.192C97.8459 188.54 97.6853 189.013 97.6853 189.505C97.6853 189.997 97.8459 190.469 98.1319 190.817C98.4178 191.166 98.8056 191.361 99.2099 191.361H145.94C146.344 191.361 146.732 191.166 147.018 190.817C147.304 190.469 147.465 189.997 147.465 189.505C147.465 189.013 147.304 188.54 147.018 188.192C146.732 187.844 146.344 187.649 145.94 187.649Z" fill="#E4E4E4"/>
<path d="M119.755 125.281H99.2287C98.8193 125.281 98.4268 125.476 98.1373 125.824C97.8479 126.172 97.6853 126.644 97.6853 127.137C97.6853 127.629 97.8479 128.101 98.1373 128.449C98.4268 128.797 98.8193 128.993 99.2287 128.993H119.755C120.165 128.993 120.557 128.797 120.847 128.449C121.136 128.101 121.299 127.629 121.299 127.137C121.299 126.644 121.136 126.172 120.847 125.824C120.557 125.476 120.165 125.281 119.755 125.281Z" fill="#E4E4E4"/>
<path d="M119.755 151.267H99.2287C98.8193 151.267 98.4268 151.463 98.1373 151.811C97.8479 152.159 97.6853 152.631 97.6853 153.123C97.6853 153.616 97.8479 154.088 98.1373 154.436C98.4268 154.784 98.8193 154.98 99.2287 154.98H119.755C120.165 154.98 120.557 154.784 120.847 154.436C121.136 154.088 121.299 153.616 121.299 153.123C121.299 152.631 121.136 152.159 120.847 151.811C120.557 151.463 120.165 151.267 119.755 151.267Z" fill="#E4E4E4"/>
<path d="M119.755 180.966H99.2287C98.8193 180.966 98.4268 181.162 98.1373 181.51C97.8479 181.858 97.6853 182.33 97.6853 182.823C97.6853 183.315 97.8479 183.787 98.1373 184.135C98.4268 184.483 98.8193 184.679 99.2287 184.679H119.755C120.165 184.679 120.557 184.483 120.847 184.135C121.136 183.787 121.299 183.315 121.299 182.823C121.299 182.33 121.136 181.858 120.847 181.51C120.557 181.162 120.165 180.966 119.755 180.966Z" fill="#E4E4E4"/>
<path d="M145.94 111.173H99.2099C98.8056 111.173 98.4178 111.33 98.1319 111.608C97.8459 111.887 97.6853 112.264 97.6853 112.658C97.6853 113.052 97.8459 113.43 98.1319 113.708C98.4178 113.987 98.8056 114.143 99.2099 114.143H145.94C146.344 114.143 146.732 113.987 147.018 113.708C147.304 113.43 147.465 113.052 147.465 112.658C147.465 112.264 147.304 111.887 147.018 111.608C146.732 111.33 146.344 111.173 145.94 111.173Z" fill="#E4E4E4"/>
<path d="M145.942 104.491H99.2085C98.8045 104.491 98.4171 104.648 98.1314 104.926C97.8458 105.205 97.6853 105.582 97.6853 105.976C97.6853 106.37 97.8458 106.748 98.1314 107.026C98.4171 107.305 98.8045 107.461 99.2085 107.461H145.942C146.346 107.461 146.733 107.305 147.019 107.026C147.304 106.748 147.465 106.37 147.465 105.976C147.465 105.582 147.304 105.205 147.019 104.926C146.733 104.648 146.346 104.491 145.942 104.491Z" fill="#E4E4E4"/>
<path d="M119.754 97.0663H99.23C98.8203 97.0663 98.4274 97.2619 98.1377 97.61C97.8481 97.9581 97.6853 98.4302 97.6853 98.9225C97.6853 99.4148 97.8481 99.887 98.1377 100.235C98.4274 100.583 98.8203 100.779 99.23 100.779H119.754C120.164 100.779 120.556 100.583 120.846 100.235C121.136 99.887 121.299 99.4148 121.299 98.9225C121.299 98.4302 121.136 97.9581 120.846 97.61C120.556 97.2619 120.164 97.0663 119.754 97.0663Z" fill="#E4E4E4"/>
<path d="M145.94 82.2168H99.2099C98.8056 82.2168 98.4178 82.4124 98.1319 82.7605C97.8459 83.1086 97.6853 83.5807 97.6853 84.073C97.6853 84.5653 97.8459 85.0374 98.1319 85.3855C98.4178 85.7336 98.8056 85.9292 99.2099 85.9292H145.94C146.344 85.9292 146.732 85.7336 147.018 85.3855C147.304 85.0374 147.465 84.5653 147.465 84.073C147.465 83.5807 147.304 83.1086 147.018 82.7605C146.732 82.4124 146.344 82.2168 145.94 82.2168Z" fill="#130160"/>
<path d="M145.94 75.5344H99.2099C98.8056 75.5344 98.4178 75.6909 98.1319 75.9694C97.8459 76.2478 97.6853 76.6255 97.6853 77.0194C97.6853 77.4132 97.8459 77.7909 98.1319 78.0694C98.4178 78.3479 98.8056 78.5043 99.2099 78.5043H145.94C146.344 78.5043 146.732 78.3479 147.018 78.0694C147.304 77.7909 147.465 77.4132 147.465 77.0194C147.465 76.6255 147.304 76.2478 147.018 75.9694C146.732 75.6909 146.344 75.5344 145.94 75.5344Z" fill="#130160"/>
<path d="M119.754 68.1096H99.23C98.8203 68.1096 98.4274 68.3052 98.1377 68.6533C97.8481 69.0014 97.6853 69.4735 97.6853 69.9658C97.6853 70.4581 97.8481 70.9302 98.1377 71.2783C98.4274 71.6264 98.8203 71.822 99.23 71.822H119.754C120.164 71.822 120.556 71.6264 120.846 71.2783C121.136 70.9302 121.299 70.4581 121.299 69.9658C121.299 69.4735 121.136 69.0014 120.846 68.6533C120.556 68.3052 120.164 68.1096 119.754 68.1096Z" fill="#130160"/>
<path d="M277.613 103.788L263.674 83.0807L249.792 93.9512L262.903 104.119L265.597 136.605C264.767 137.479 264.209 138.574 263.992 139.758C263.776 140.942 263.909 142.163 264.377 143.272C264.845 144.382 265.627 145.331 266.627 146.006C267.627 146.68 268.803 147.05 270.01 147.07C271.218 147.09 272.405 146.76 273.428 146.119C274.45 145.479 275.263 144.556 275.768 143.463C276.273 142.37 276.448 141.154 276.271 139.963C276.095 138.773 275.574 137.66 274.774 136.759L277.613 103.788Z" fill="#FFB6B6"/>
<path d="M244.426 63.9949C251.8 62.6204 266.421 85.3295 266.421 85.3295C264.684 85.3665 278.088 98.8217 276.661 99.472C272.604 101.32 262.933 102.763 261.434 105.258C260.576 106.684 252.027 96.9739 252.027 96.9739C252.027 96.9739 246.685 91.9095 239.941 85.2578C237.999 83.4125 236.557 81.1078 235.75 78.5581C234.943 76.0084 234.796 73.2967 235.324 70.6753C235.324 70.6753 237.052 65.3694 244.426 63.9949Z" fill="#130160"/>
<path d="M251.418 247.731L251.936 236.131C257.334 233.256 263.355 231.737 269.476 231.707C261.052 238.569 262.105 251.797 256.393 261.025C254.59 263.89 252.163 266.313 249.291 268.116C246.42 269.919 243.178 271.055 239.806 271.439L232.757 275.74C231.789 270.367 232.003 264.849 233.382 259.566C234.761 254.283 237.273 249.361 240.746 245.138C242.717 242.789 244.978 240.696 247.474 238.909C249.163 243.345 251.418 247.731 251.418 247.731Z" fill="#130160"/>
<path d="M233.254 269.77L226.87 269.769L223.834 245.238L233.255 245.238L233.254 269.77Z" fill="#FFB6B6"/>
<path d="M234.882 275.935L214.299 275.934V275.675C214.299 273.558 215.144 271.528 216.646 270.031C218.148 268.534 220.186 267.693 222.311 267.693H222.311L226.071 264.851L233.086 267.693L234.882 267.693L234.882 275.935Z" fill="#2F2E41"/>
<path d="M203.598 269.77L197.215 269.769L194.178 245.238L203.599 245.238L203.598 269.77Z" fill="#FFB6B6"/>
<path d="M205.226 275.935L184.643 275.934V275.675C184.643 273.558 185.488 271.528 186.99 270.031C188.492 268.534 190.53 267.693 192.655 267.693H192.655L196.415 264.851L203.43 267.693L205.226 267.693L205.226 275.935Z" fill="#2F2E41"/>
<path d="M200.835 135.653L242.355 136.688C250.241 140.955 250.361 150.191 247.777 161.157C247.777 161.157 248.649 167.675 246.905 169.413C245.16 171.151 244.288 171.151 245.16 174.193C246.032 177.235 241.424 182.203 241.984 182.76C242.543 183.318 243.852 186.36 243.852 186.36L239.491 211.128C239.491 211.128 236.438 254.146 235.566 255.015C234.693 255.884 233.821 255.015 234.693 257.187C235.566 259.36 236.438 258.491 235.566 259.36C234.793 260.19 234.065 261.06 233.385 261.967H222.841C222.841 261.967 222.046 257.622 222.046 257.187C222.046 256.753 221.174 254.146 221.174 253.711C221.174 253.277 221.945 252.509 221.945 252.509C222.211 251.625 222.391 250.718 222.482 249.8C222.482 248.931 225.099 215.473 225.099 215.473L219.865 172.02L207.218 214.604C207.218 214.604 207.218 251.973 206.346 252.842C205.473 253.711 205.473 253.277 205.91 255.015C206.346 256.753 208.09 256.318 206.782 257.622C205.473 258.925 205.037 256.753 205.473 258.925L205.91 261.098L192.826 261.285C192.826 261.285 191.081 257.622 191.954 256.318C192.826 255.015 192.774 255.371 191.71 253.237C190.645 251.104 190.209 250.669 190.645 250.235C191.081 249.8 191.081 247.489 191.081 247.489L193.262 205.913C193.262 205.913 193.698 162.026 193.698 160.723C193.731 160.052 193.607 159.383 193.336 158.768V156.999L195.007 150.729L200.835 135.653Z" fill="#69687F"/>
<path d="M225.777 49.6338C232.902 49.6338 238.677 43.8791 238.677 36.7804C238.677 29.6816 232.902 23.9269 225.777 23.9269C218.652 23.9269 212.876 29.6816 212.876 36.7804C212.876 43.8791 218.652 49.6338 225.777 49.6338Z" fill="#FFB6B6"/>
<path d="M219.327 58.1292C216.547 59.7754 214.885 62.8002 213.93 65.8781C212.164 71.5766 211.1 77.4683 210.763 83.4231L209.755 101.251L197.271 139.21C208.091 148.332 248.761 141.283 248.761 141.283C248.761 141.283 250.009 140.869 248.761 139.625C247.512 138.381 246.297 139.483 247.545 138.239C248.794 136.995 247.933 138.381 247.517 137.137C247.101 135.893 247.517 136.722 247.933 136.308C248.349 135.893 244.712 132.162 244.712 132.162L248.041 110.372L252.202 66.4217C247.209 60.2022 237.165 56.5359 237.165 56.5359L234.57 51.882L221.595 52.9162L219.327 58.1292Z" fill="#130160"/>
<path d="M217.557 29.2371C218.056 29.2409 218.553 29.3059 219.036 29.4305C219.989 29.6587 220.957 29.8203 221.932 29.9142C224.918 30.1942 227.725 31.4632 229.902 33.5186C232.08 35.574 233.504 38.2971 233.946 41.2532C234.695 40.602 236.401 39.4042 237.799 40.5175C237.821 40.5351 237.833 40.5442 237.882 40.521C238.811 40.0822 240.459 34.6803 240.509 29.9241C240.535 27.3996 240.136 24.1761 238.087 23.1552L237.979 23.1014L237.951 22.9845C237.814 22.4167 236.284 21.4473 233.626 20.6929C228.795 19.3219 221.593 16.651 217.538 20.5816C217.231 21.9067 216.233 24.7424 215.224 25.0638C214.107 25.4196 213.143 25.7266 212.991 27.0916C212.864 29.0341 212.873 30.983 213.018 32.9242C213.397 31.7364 214.14 30.6967 215.142 29.9516C215.855 29.4734 216.698 29.2241 217.557 29.2371Z" fill="#2F2E41"/>
<path d="M193.545 100.258L214.618 86.8114L204.004 72.7537L193.524 85.5987L160.869 87.5941C160.01 86.7482 158.923 86.1696 157.739 85.9287C156.556 85.6879 155.328 85.7953 154.205 86.2378C153.082 86.6803 152.112 87.4389 151.414 88.421C150.717 89.403 150.321 90.5662 150.275 91.7686C150.229 92.971 150.535 94.1608 151.156 95.1928C151.777 96.2248 152.686 97.0544 153.773 97.5805C154.859 98.1067 156.075 98.3066 157.273 98.1559C158.471 98.0052 159.6 97.5104 160.52 96.7318L193.545 100.258Z" fill="#FFB6B6"/>
<path d="M234.177 68.043C235.4 75.4178 212.304 89.5006 212.304 89.5006C212.303 87.7696 198.518 100.837 197.896 99.4018C196.127 95.3216 194.884 85.6576 192.413 84.1108C190.999 83.2262 200.924 74.9162 200.924 74.9162C200.924 74.9162 206.119 69.7018 212.936 63.1246C214.829 61.2295 217.172 59.8423 219.748 59.0922C222.323 58.3421 225.048 58.2535 227.667 58.8345C227.667 58.8345 232.954 60.6681 234.177 68.043Z" fill="#130160"/>
<path d="M281.174 276.037C281.174 276.118 281.158 276.198 281.127 276.273C281.096 276.348 281.051 276.416 280.993 276.473C280.936 276.53 280.868 276.575 280.793 276.606C280.717 276.637 280.637 276.653 280.556 276.653H135.084C134.92 276.653 134.763 276.588 134.647 276.472C134.532 276.357 134.467 276.2 134.467 276.037C134.467 275.874 134.532 275.718 134.647 275.602C134.763 275.487 134.92 275.422 135.084 275.422H280.556C280.637 275.422 280.717 275.437 280.793 275.468C280.868 275.499 280.936 275.544 280.993 275.602C281.051 275.659 281.096 275.727 281.127 275.801C281.158 275.876 281.174 275.956 281.174 276.037Z" fill="#130160"/>
<circle cx="65.7931" cy="24.3141" r="24.3141" fill="#47C8CB"/>
<path d="M73.3195 30.7031L76.4663 33.8482C76.613 34.0002 76.6942 34.2037 76.6924 34.4149C76.6905 34.6261 76.6058 34.8282 76.4564 34.9776C76.3071 35.1269 76.105 35.2116 75.8938 35.2135C75.6826 35.2153 75.4791 35.1341 75.3271 34.9874L72.1804 31.8407C70.1241 33.6024 67.4654 34.4993 64.7621 34.343C62.0588 34.1868 59.5211 32.9895 57.6815 31.0026C55.8419 29.0156 54.8434 26.3933 54.8955 23.686C54.9476 20.9787 56.0463 18.3968 57.961 16.4821C59.8757 14.5674 62.4576 13.4687 65.1649 13.4166C67.8722 13.3645 70.4945 14.363 72.4814 16.2026C74.4684 18.0422 75.6656 20.5799 75.8219 23.2832C75.9782 25.9865 75.0813 28.6452 73.3195 30.7015V30.7031ZM65.3666 32.7494C67.7169 32.7494 69.9709 31.8158 71.6327 30.1539C73.2946 28.492 74.2283 26.238 74.2283 23.8877C74.2283 21.5374 73.2946 19.2834 71.6327 17.6215C69.9709 15.9597 67.7169 15.026 65.3666 15.026C63.0163 15.026 60.7623 15.9597 59.1004 17.6215C57.4385 19.2834 56.5049 21.5374 56.5049 23.8877C56.5049 26.238 57.4385 28.492 59.1004 30.1539C60.7623 31.8158 63.0163 32.7494 65.3666 32.7494Z" fill="white"/>
<path d="M26.628 332.214H54.168V336.57H26.628V332.214ZM52.332 332.214H56.904C56.904 332.214 56.868 333.654 56.832 334.266C56.364 348.162 55.896 353.346 54.456 355.146C53.448 356.514 52.404 356.91 50.892 357.126C49.524 357.342 47.292 357.306 45.096 357.234C45.024 355.938 44.412 353.994 43.584 352.698C45.816 352.914 47.904 352.914 48.84 352.914C49.56 352.914 49.956 352.77 50.424 352.338C51.504 351.222 51.972 345.858 52.332 333.042V332.214ZM37.824 323.862H42.216V328.758C42.216 336.678 41.208 349.062 29.184 356.946C28.464 355.938 26.808 354.426 25.764 353.706C36.96 346.722 37.824 335.706 37.824 328.722V323.862ZM28.86 326.202L32.64 324.69C33.972 326.274 35.556 328.542 36.24 330.054L32.208 331.782C31.632 330.306 30.156 327.966 28.86 326.202ZM41.352 341.61L44.988 339.918C46.572 341.934 48.516 344.706 49.344 346.542L45.492 348.45C44.736 346.614 42.9 343.734 41.352 341.61ZM76.236 323.898L80.484 324.87C78.972 330.558 76.416 336.21 73.536 339.774C72.78 339.018 71.052 337.614 70.08 336.966C72.816 333.87 75.012 328.902 76.236 323.898ZM75.228 339.918L79.404 340.782C78.396 345.354 76.524 349.962 74.508 352.878C73.68 352.194 71.844 351.078 70.836 350.538C72.852 348.018 74.4 343.914 75.228 339.918ZM77.028 330.234H91.788V334.23H75.408L77.028 330.234ZM81.168 331.998H85.452V352.77C85.452 354.858 85.092 356.046 83.796 356.766C82.536 357.45 80.772 357.63 78.468 357.63C78.252 356.37 77.604 354.462 76.992 353.274C78.504 353.346 80.016 353.31 80.52 353.31C80.988 353.31 81.168 353.202 81.168 352.734V331.998ZM86.712 340.854L90.6 339.558C92.472 343.266 94.02 348.054 94.524 351.33L90.384 352.77C89.988 349.53 88.476 344.562 86.712 340.854ZM90.636 330.234H91.212L91.896 330.126L94.92 330.666C94.488 333.618 93.84 336.966 93.372 339.126L89.664 338.478C89.988 336.534 90.384 333.33 90.636 330.81V330.234ZM68.532 323.934L72.6 325.194C70.26 331.35 66.516 337.83 62.592 341.934C62.196 340.89 61.044 338.514 60.288 337.47C63.564 334.194 66.696 329.082 68.532 323.934ZM65.04 333.87L69.144 329.766L69.18 329.802V357.558H65.04V333.87ZM101.148 329.622H112.2V353.886H101.148V350.07H108.276V333.402H101.148V329.622ZM98.628 329.622H102.552V356.55H98.628V329.622ZM100.968 339.234H110.184V342.978H100.968V339.234ZM103.74 323.754L108.456 324.438C107.628 326.886 106.728 329.442 106.008 331.134L102.552 330.378C103.056 328.506 103.56 325.734 103.74 323.754ZM116.952 329.37H127.464V333.294H116.952V329.37ZM125.988 329.37H129.984C129.984 329.37 129.984 330.774 129.948 331.314C129.48 347.514 129.048 353.238 127.572 355.146C126.564 356.55 125.556 356.946 124.08 357.162C122.712 357.378 120.516 357.342 118.428 357.234C118.356 356.046 117.78 354.21 116.988 353.058C119.328 353.238 121.488 353.274 122.388 353.274C123.108 353.274 123.504 353.13 123.972 352.626C125.124 351.402 125.592 345.21 125.988 330.198V329.37ZM117.06 323.79L121.2 324.762C119.796 330.09 117.456 335.562 115.008 339.018C114.216 338.298 112.452 337.074 111.444 336.498C113.856 333.474 115.908 328.578 117.06 323.79ZM115.296 339.738L118.68 337.83C120.444 340.314 122.82 343.77 123.936 345.894L120.264 348.126C119.292 345.93 117.024 342.402 115.296 339.738ZM141.108 347.298L144.528 344.994C147.156 346.11 150.9 348.018 152.88 349.422L149.172 351.978C147.48 350.61 143.844 348.594 141.108 347.298ZM146.364 341.358H159.9V344.922H142.836L146.364 341.358ZM133.8 326.994H149.244V330.63H133.8V326.994ZM139.812 323.79H143.736V339.702H139.812V323.79ZM150.216 326.994H166.38V330.63H150.216V326.994ZM155.688 323.79H159.684V339.702H155.688V323.79ZM160.26 329.01C161.808 331.638 164.76 334.446 167.424 335.886C166.524 336.606 165.264 338.01 164.652 339.018C161.952 337.038 159.072 333.438 157.416 330.126L160.26 329.01ZM143.664 330.738C144.744 331.278 148.308 333.402 149.136 333.942L147.012 337.506C145.896 336.21 143.124 333.726 141.828 332.646L143.664 330.738ZM139.668 328.866L142.404 329.91C140.856 333.33 138.084 337.038 135.528 339.09C134.88 338.154 133.656 336.822 132.792 336.102C135.348 334.554 138.192 331.602 139.668 328.866ZM155.832 328.866L158.604 329.946C156.984 333.33 154.104 336.93 151.26 338.838C150.612 337.902 149.388 336.498 148.524 335.778C151.296 334.302 154.284 331.53 155.832 328.866ZM147.264 338.19L151.692 339.882C148.2 343.806 142.8 347.514 137.688 349.71C136.824 348.774 135.276 347.406 134.268 346.686C139.416 344.778 144.78 341.358 147.264 338.19ZM158.388 341.358H159.324L160.116 341.214L163.14 343.23C158.352 351.906 148.02 355.974 136.86 357.666C136.464 356.514 135.384 354.498 134.556 353.526C145.392 352.374 154.896 348.99 158.388 342.114V341.358ZM177.396 346.938H181.644V351.834C181.644 352.914 182.004 353.022 183.984 353.022C184.884 353.022 188.556 353.022 189.744 353.022C191.436 353.022 191.688 352.518 191.868 348.882C192.804 349.566 194.604 350.178 195.756 350.43C195.252 355.578 194.064 356.874 190.068 356.874C189.024 356.874 184.524 356.874 183.552 356.874C178.62 356.874 177.396 355.686 177.396 351.906V346.938ZM182.58 346.47L185.532 344.094C187.152 345.534 189.384 347.586 190.5 348.882L187.368 351.546C186.36 350.214 184.2 348.018 182.58 346.47ZM194.748 347.478L198.528 345.714C200.004 347.946 202.092 351.042 203.064 352.914L199.032 354.966C198.168 353.058 196.188 349.854 194.748 347.478ZM172.212 346.218L176.064 347.694C175.38 350.286 174.3 353.526 173.004 355.614L169.08 353.67C170.412 351.726 171.6 348.774 172.212 346.218ZM169.692 328.938H184.848V332.574H169.692V328.938ZM175.668 323.826H179.772V345.498H175.668V323.826ZM175.524 331.35L178.476 332.286C177 336.642 174.372 341.142 171.6 343.662C170.952 342.726 169.692 341.322 168.828 340.638C171.528 338.658 174.156 334.878 175.524 331.35ZM179.52 333.762C180.744 334.446 184.524 337.146 185.496 337.866L183.228 341.322C181.824 339.846 178.8 337.074 177.288 335.886L179.52 333.762ZM190.176 334.266V336.39H196.836V334.266H190.176ZM190.176 339.522V341.682H196.836V339.522H190.176ZM190.176 329.01V331.062H196.836V329.01H190.176ZM186.252 325.59H200.976V345.066H186.252V325.59ZM204.936 342.078C208.248 341.394 213.216 340.206 217.824 338.982L218.328 342.978C214.152 344.13 209.58 345.318 206.052 346.218L204.936 342.078ZM205.368 330.63H217.968V334.662H205.368V330.63ZM209.868 323.79H214.08V352.77C214.08 354.822 213.684 355.902 212.496 356.55C211.272 357.198 209.544 357.306 206.988 357.306C206.844 356.226 206.304 354.462 205.8 353.382C207.204 353.454 208.716 353.418 209.184 353.418C209.688 353.418 209.868 353.238 209.868 352.734V323.79ZM218.364 333.366L238.056 331.458L238.488 335.49L218.796 337.506L218.364 333.366ZM228.192 326.274L231.504 324.15C233.088 325.698 235.284 327.93 236.364 329.37L232.872 331.782C231.9 330.306 229.776 327.93 228.192 326.274ZM222.432 323.97H226.86C227.112 339.558 229.272 351.438 233.988 352.122C234.816 352.23 235.284 350.466 235.5 346.578C236.364 347.514 238.272 348.702 239.136 349.098C238.164 355.83 236.22 357.486 234.204 357.306C225.348 356.406 223.08 343.59 222.432 323.97ZM233.376 336.894L236.94 339.054C233.664 346.218 227.256 353.094 220.236 356.406C219.444 355.29 218.004 353.922 216.78 353.058C224.088 350.214 230.388 343.698 233.376 336.894ZM241.476 326.058H259.836V329.91H241.476V326.058ZM242.556 343.194H258.72V347.046H242.556V343.194ZM248.532 339.702H252.816V353.274L248.532 353.922V339.702ZM241.08 352.446C245.868 352.014 253.176 351.15 259.908 350.358L260.016 354.39C253.572 355.254 246.66 356.154 241.728 356.766L241.08 352.446ZM241.404 335.346C245.544 335.274 251.808 335.094 257.82 334.878L257.712 338.586C251.988 338.91 245.976 339.162 241.656 339.342L241.404 335.346ZM252.456 332.214L255.66 330.522C257.676 332.97 259.98 336.282 260.88 338.55L257.46 340.494C256.632 338.262 254.436 334.77 252.456 332.214ZM246.588 328.398L251.268 329.37C250.008 332.43 248.604 335.886 247.416 338.118L243.78 337.146C244.824 334.77 246.012 331.062 246.588 328.398ZM261.168 328.182H265.308V348.558H261.168V328.182ZM269.376 324.798H273.588V352.446C273.588 354.894 273.12 356.082 271.68 356.766C270.24 357.45 267.9 357.594 264.84 357.594C264.66 356.37 264.048 354.426 263.436 353.202C265.596 353.31 267.792 353.274 268.512 353.274C269.16 353.238 269.376 353.058 269.376 352.41V324.798Z" fill="#0D0140"/>
<path d="M68.568 378.014H87.252V381.902H68.568V378.014ZM61.872 384.494H94.128V388.562H61.872V384.494ZM70.584 387.734H75.264C74.58 394.43 72.852 399.182 63.348 401.702C62.916 400.55 61.8 398.75 60.828 397.85C69.072 396.014 70.044 392.666 70.584 387.734ZM79.872 387.05H84.228V395.834C84.228 396.986 84.444 397.166 85.704 397.166C86.28 397.166 88.62 397.166 89.304 397.166C90.492 397.166 90.708 396.554 90.852 392.774C91.716 393.458 93.588 394.142 94.704 394.43C94.272 399.686 93.12 401.054 89.7 401.054C88.872 401.054 85.92 401.054 85.092 401.054C80.88 401.054 79.872 399.794 79.872 395.906V387.05ZM75.588 367.826H80.196V374.342H75.588V367.826ZM62.52 371.282H93.444V379.85H88.8V375.35H66.912V379.85H62.52V371.282ZM99.312 372.218H128.652V376.034H99.312V372.218ZM100.968 377.834H127.212V381.47H100.968V377.834ZM97.872 383.342H130.092V387.194H97.872V383.342ZM97.62 389.39H130.488V393.17H97.62V389.39ZM111.696 374.594H116.124V386.402H111.696V374.594ZM103.668 369.194L107.52 367.682C108.636 368.906 109.716 370.598 110.184 371.858L106.152 373.586C105.792 372.326 104.748 370.49 103.668 369.194ZM119.796 367.682L124.404 368.834C123.288 370.49 122.136 372.002 121.236 373.046L117.312 371.93C118.176 370.742 119.22 368.942 119.796 367.682ZM111.192 386.51H115.764C114.936 394.538 112.776 399.362 99.132 401.558C98.808 400.406 97.8 398.642 96.972 397.706C109.248 396.086 110.544 392.702 111.192 386.51ZM116.772 390.542C118.896 395.042 123.432 397.13 131.244 397.67C130.344 398.606 129.192 400.442 128.652 401.666C120.012 400.622 115.548 397.634 112.812 391.226L116.772 390.542ZM137.148 373.622H148.2V397.886H137.148V394.07H144.276V377.402H137.148V373.622ZM134.628 373.622H138.552V400.55H134.628V373.622ZM136.968 383.234H146.184V386.978H136.968V383.234ZM139.74 367.754L144.456 368.438C143.628 370.886 142.728 373.442 142.008 375.134L138.552 374.378C139.056 372.506 139.56 369.734 139.74 367.754ZM152.952 373.37H163.464V377.294H152.952V373.37ZM161.988 373.37H165.984C165.984 373.37 165.984 374.774 165.948 375.314C165.48 391.514 165.048 397.238 163.572 399.146C162.564 400.55 161.556 400.946 160.08 401.162C158.712 401.378 156.516 401.342 154.428 401.234C154.356 400.046 153.78 398.21 152.988 397.058C155.328 397.238 157.488 397.274 158.388 397.274C159.108 397.274 159.504 397.13 159.972 396.626C161.124 395.402 161.592 389.21 161.988 374.198V373.37ZM153.06 367.79L157.2 368.762C155.796 374.09 153.456 379.562 151.008 383.018C150.216 382.298 148.452 381.074 147.444 380.498C149.856 377.474 151.908 372.578 153.06 367.79ZM151.296 383.738L154.68 381.83C156.444 384.314 158.82 387.77 159.936 389.894L156.264 392.126C155.292 389.93 153.024 386.402 151.296 383.738ZM190.68 389.462V396.194H187.152V389.462H190.68ZM197.016 386.366V401.594H193.128V386.366H197.016ZM202.344 394.43V397.67H183.84V394.43H202.344ZM201.408 388.058V391.37H185.676V388.058H201.408ZM175.74 391.19C177.072 392.126 178.8 393.53 179.628 394.538L176.784 396.446C176.028 395.474 174.372 393.998 173.004 392.99L175.74 391.19ZM182.652 388.202L183.3 388.094L185.604 389.174C183.408 395.978 178.404 399.758 172.428 401.666C171.96 400.802 170.808 399.254 170.052 398.606C175.704 397.13 180.204 393.998 181.896 388.778V388.202H182.652ZM179.88 386.546C178.008 390.038 174.732 393.026 171.456 394.826C170.952 394.178 169.656 392.882 168.9 392.27C172.032 390.794 174.948 388.382 176.46 385.61L179.88 386.546ZM197.052 372.11V384.206H193.092V372.11H197.052ZM190.788 372.11V384.206H187.26V372.11H190.788ZM184.92 372.11V384.206H181.356V372.11H184.92ZM179.16 372.11V384.206H175.236V372.11H179.16ZM201.624 382.622V386.006H170.7V382.622H201.624ZM202.02 376.718V380.174H169.98V376.718H202.02ZM183.084 388.202V391.046H173.904L176.712 388.202H183.084ZM200.472 370.922V374.306H173.292L176.64 370.922H200.472ZM180.06 368.474C178.26 371.462 176.064 374.198 172.968 376.574C172.212 375.746 170.808 374.594 169.8 374.09C172.644 372.254 174.732 369.77 175.92 367.682L180.06 368.474ZM211.884 395.942H231.756V400.118H211.884V395.942ZM209.94 385.61H234.024V401.558H229.38V389.75H214.368V401.558H209.94V385.61ZM216.996 367.502L221.928 369.122C219.588 373.586 216.528 378.41 214.08 381.542L210.192 379.994C212.604 376.718 215.448 371.534 216.996 367.502ZM225.636 373.946L229.056 371.426C232.62 374.306 236.94 378.482 238.812 381.578L235.032 384.458C233.34 381.434 229.236 377.042 225.636 373.946ZM206.124 377.978C213.396 377.798 224.556 377.366 234.456 376.934L234.24 381.11C224.268 381.65 213.468 382.082 206.376 382.37L206.124 377.978Z" fill="#0D0140"/>
</svg>
