<svg width="304" height="411" viewBox="0 0 304 411" fill="none" xmlns="http://www.w3.org/2000/svg">
<path d="M41.648 342.742V359.158H37.472V346.702H33.404V342.742H41.648ZM34.52 333.238L37.832 331.078C39.596 332.986 41.828 335.686 42.836 337.45L39.308 339.898C38.408 338.098 36.248 335.29 34.52 333.238ZM39.452 356.026C40.712 356.026 41.648 357.106 43.808 358.294C46.256 359.77 49.64 360.022 53.816 360.022C57.704 360.022 63.68 359.662 67.424 359.086C66.884 360.31 66.164 362.614 66.092 363.874C63.464 364.054 57.452 364.306 53.6 364.306C48.848 364.306 45.788 363.838 43.088 362.362C41.432 361.39 40.172 360.238 39.344 360.238C38.3 360.238 36.788 362.722 35.528 364.918L32.396 360.562C34.916 357.79 37.616 356.026 39.452 356.026ZM53.924 339.25H58.388V359.194H53.924V339.25ZM43.376 350.05H66.092V354.082H43.376V350.05ZM43.7 334.354H65.696V338.062H43.7V334.354ZM45.464 347.386V344.038L47.624 342.814H64.58L64.544 346.81H48.992C47.408 346.81 45.788 347.026 45.464 347.386ZM45.464 347.386C45.248 346.522 44.528 344.47 44.06 343.354C44.816 343.138 45.392 342.346 46.112 341.086C46.832 339.862 48.92 335.146 50.036 330.754L54.536 331.942C52.988 336.658 50.612 341.662 48.416 345.046V345.118C48.416 345.118 45.464 346.594 45.464 347.386ZM89.384 330.754H93.74V335.65H89.384V330.754ZM81.32 334.21H101.84V337.846H81.32V334.21ZM80.204 342.418H102.74V346.09H80.204V342.418ZM84.596 337.954L88.304 337.234C88.952 338.89 89.528 341.014 89.636 342.382L85.712 343.246C85.676 341.878 85.208 339.646 84.596 337.954ZM94.748 337.27L98.924 337.702C98.204 339.754 97.484 341.734 96.836 343.138L93.2 342.634C93.776 341.122 94.424 338.854 94.748 337.27ZM80.492 348.646H102.668V352.282H80.492V348.646ZM87.944 345.19L92.264 346.018C90.32 350.302 87.8 355.378 85.892 358.762L82.184 357.574C83.984 354.37 86.396 349.186 87.944 345.19ZM84.74 357.61L87.26 354.766C92.264 356.242 98.888 359.014 102.308 361.39L99.536 364.594C96.404 362.254 89.852 359.266 84.74 357.61ZM94.748 351.31L98.888 351.742C97.016 360.238 92.228 363.19 80.96 364.666C80.636 363.478 79.988 362.002 79.376 361.174C89.24 360.382 93.236 358.006 94.748 351.31ZM68.72 349.186C71.744 348.574 76.244 347.458 80.528 346.378L81.032 350.194C77.108 351.346 72.932 352.498 69.62 353.398L68.72 349.186ZM69.44 337.63H80.564V341.59H69.44V337.63ZM73.688 330.826H77.828V359.734C77.828 361.858 77.468 363.01 76.28 363.694C75.092 364.414 73.364 364.558 70.916 364.558C70.772 363.406 70.232 361.534 69.692 360.346C71.096 360.418 72.572 360.418 73.04 360.418C73.508 360.418 73.688 360.238 73.688 359.734V330.826ZM113.108 354.298L116.528 351.994C119.156 353.11 122.9 355.018 124.88 356.422L121.172 358.978C119.48 357.61 115.844 355.594 113.108 354.298ZM118.364 348.358H131.9V351.922H114.836L118.364 348.358ZM105.8 333.994H121.244V337.63H105.8V333.994ZM111.812 330.79H115.736V346.702H111.812V330.79ZM122.216 333.994H138.38V337.63H122.216V333.994ZM127.688 330.79H131.684V346.702H127.688V330.79ZM132.26 336.01C133.808 338.638 136.76 341.446 139.424 342.886C138.524 343.606 137.264 345.01 136.652 346.018C133.952 344.038 131.072 340.438 129.416 337.126L132.26 336.01ZM115.664 337.738C116.744 338.278 120.308 340.402 121.136 340.942L119.012 344.506C117.896 343.21 115.124 340.726 113.828 339.646L115.664 337.738ZM111.668 335.866L114.404 336.91C112.856 340.33 110.084 344.038 107.528 346.09C106.88 345.154 105.656 343.822 104.792 343.102C107.348 341.554 110.192 338.602 111.668 335.866ZM127.832 335.866L130.604 336.946C128.984 340.33 126.104 343.93 123.26 345.838C122.612 344.902 121.388 343.498 120.524 342.778C123.296 341.302 126.284 338.53 127.832 335.866ZM119.264 345.19L123.692 346.882C120.2 350.806 114.8 354.514 109.688 356.71C108.824 355.774 107.276 354.406 106.268 353.686C111.416 351.778 116.78 348.358 119.264 345.19ZM130.388 348.358H131.324L132.116 348.214L135.14 350.23C130.352 358.906 120.02 362.974 108.86 364.666C108.464 363.514 107.384 361.498 106.556 360.526C117.392 359.374 126.896 355.99 130.388 349.114V348.358ZM149.396 353.938H153.644V358.834C153.644 359.914 154.004 360.022 155.984 360.022C156.884 360.022 160.556 360.022 161.744 360.022C163.436 360.022 163.688 359.518 163.868 355.882C164.804 356.566 166.604 357.178 167.756 357.43C167.252 362.578 166.064 363.874 162.068 363.874C161.024 363.874 156.524 363.874 155.552 363.874C150.62 363.874 149.396 362.686 149.396 358.906V353.938ZM154.58 353.47L157.532 351.094C159.152 352.534 161.384 354.586 162.5 355.882L159.368 358.546C158.36 357.214 156.2 355.018 154.58 353.47ZM166.748 354.478L170.528 352.714C172.004 354.946 174.092 358.042 175.064 359.914L171.032 361.966C170.168 360.058 168.188 356.854 166.748 354.478ZM144.212 353.218L148.064 354.694C147.38 357.286 146.3 360.526 145.004 362.614L141.08 360.67C142.412 358.726 143.6 355.774 144.212 353.218ZM141.692 335.938H156.848V339.574H141.692V335.938ZM147.668 330.826H151.772V352.498H147.668V330.826ZM147.524 338.35L150.476 339.286C149 343.642 146.372 348.142 143.6 350.662C142.952 349.726 141.692 348.322 140.828 347.638C143.528 345.658 146.156 341.878 147.524 338.35ZM151.52 340.762C152.744 341.446 156.524 344.146 157.496 344.866L155.228 348.322C153.824 346.846 150.8 344.074 149.288 342.886L151.52 340.762ZM162.176 341.266V343.39H168.836V341.266H162.176ZM162.176 346.522V348.682H168.836V346.522H162.176ZM162.176 336.01V338.062H168.836V336.01H162.176ZM158.252 332.59H172.976V352.066H158.252V332.59ZM185.756 343.39H201.524V347.386H185.756V343.39ZM187.304 335.362H206.384V339.502H187.304V335.362ZM177.692 351.238H210.344V355.342H177.692V351.238ZM200.012 343.39H204.476C204.476 343.39 204.404 344.722 204.332 345.298C203.468 356.422 202.532 361.03 200.912 362.758C199.796 363.982 198.752 364.306 197.096 364.486C195.728 364.666 193.352 364.63 190.94 364.522C190.868 363.262 190.256 361.39 189.428 360.166C191.876 360.418 194.324 360.418 195.368 360.418C196.16 360.418 196.628 360.346 197.168 359.95C198.428 358.834 199.292 354.226 200.012 344.146V343.39ZM185.864 330.754L190.4 331.15C189.392 337.09 187.952 344.434 186.872 348.934L182.336 348.574C183.56 343.966 185.036 336.478 185.864 330.754ZM226.976 331.654H231.908C231.584 337.702 231.116 355.27 216.392 364.306C215.636 363.19 214.232 361.858 212.756 360.85C227.228 352.822 226.724 336.37 226.976 331.654ZM231.764 332.59C231.872 335.722 232.628 353.686 247.388 360.598C246.02 361.642 244.724 363.082 244.076 364.27C228.56 356.566 227.876 336.73 227.588 333.022L231.764 332.59ZM264.2 330.754L268.772 330.718L268.952 359.194C268.988 361.858 268.448 363.046 266.828 363.802C265.244 364.522 262.724 364.63 259.196 364.666C258.98 363.37 258.224 361.354 257.54 360.166C259.952 360.238 262.58 360.202 263.336 360.202C264.128 360.166 264.416 359.95 264.38 359.23L264.2 330.754ZM250.196 337.234H281.912V341.482H250.196V337.234ZM274.784 342.274L279.068 344.902C272.264 351.022 261.824 356.062 251.276 358.798C250.736 357.646 249.62 355.738 248.9 354.73C259.016 352.426 269.672 347.494 274.784 342.274Z" fill="#0D0140"/>
<path d="M59.324 375.042H63.824V395.67H59.324V375.042ZM72.104 375.042H76.64V395.67H72.104V375.042ZM51.584 392.826H84.524V397.038H51.584V392.826ZM52.808 381.738H83.408V385.878H52.808V381.738ZM70.484 400.422L74.444 398.262C77.504 400.53 81.968 403.878 84.272 406.074L79.988 408.594C77.972 406.434 73.688 402.906 70.484 400.422ZM60.908 398.406L65.48 400.17C62.78 403.302 58.82 406.578 55.328 408.594C54.428 407.694 52.808 406.326 51.8 405.57C55.184 403.806 59.036 400.818 60.908 398.406ZM115.088 375.474H119.372V403.554C119.372 406.002 118.868 407.082 117.356 407.766C115.844 408.414 113.504 408.522 110.12 408.522C109.94 407.37 109.256 405.498 108.68 404.382C110.948 404.49 113.36 404.454 114.116 404.454C114.8 404.418 115.088 404.202 115.088 403.518V375.474ZM108.176 378.894H112.316V399.378H108.176V378.894ZM92.66 387.858H102.452V391.602H92.66V387.858ZM90.788 387.858H95V402.618C95 404.13 95.252 404.346 96.908 404.346C97.664 404.346 100.868 404.346 101.768 404.346C103.28 404.346 103.532 403.626 103.748 399.774C104.648 400.458 106.34 401.106 107.456 401.358C106.988 406.47 105.836 407.982 102.128 407.982C101.156 407.982 97.268 407.982 96.368 407.982C92.12 407.982 90.788 406.866 90.788 402.654V387.858ZM100.832 387.858H104.972C104.972 387.858 104.936 388.866 104.9 389.334C104.648 395.346 104.288 397.938 103.424 398.946C102.74 399.774 101.984 400.062 101.012 400.206C100.148 400.314 98.708 400.35 97.16 400.278C97.088 399.162 96.656 397.65 96.08 396.642C97.268 396.786 98.348 396.822 98.888 396.822C99.356 396.822 99.644 396.75 99.932 396.426C100.364 395.886 100.652 393.834 100.832 388.434V387.858ZM96.296 379.182L99.14 376.662C102.02 379.722 105.944 383.898 107.672 386.598L104.54 389.586C102.884 386.814 99.176 382.386 96.296 379.182ZM96.692 374.718L100.616 375.942C98.204 381.666 94.388 386.778 89.672 390.306C89.024 389.406 87.512 387.822 86.576 387.138C90.968 384.186 94.784 379.326 96.692 374.718ZM138.416 384.618H155.012V388.074H138.416V384.618ZM145.652 389.19H149.828V408.486H145.652V389.19ZM139.028 396.174C138.812 395.346 138.164 393.51 137.768 392.466C138.452 392.286 139.028 391.566 139.712 390.342C140.396 389.226 142.448 384.942 143.636 380.838L147.848 381.738C146.264 386.238 143.924 390.882 141.908 394.014V394.05C141.908 394.05 139.028 395.382 139.028 396.174ZM139.028 396.174V392.934L141.008 391.854H155.948L155.912 395.634H142.304C140.828 395.634 139.352 395.814 139.028 396.174ZM137.12 376.41H156.02V383.61H152.24V380.262H140.756V383.61H137.12V376.41ZM137.264 398.694H156.92V402.618H137.264V398.694ZM128.084 375.33H131.612V389.298H128.084V375.33ZM123.368 387.174H136.4V391.17H123.368V387.174ZM125.636 389.406H129.128C129.056 397.686 128.552 404.238 125.348 408.306C124.808 407.37 123.692 406.002 122.792 405.354C125.348 402.006 125.564 396.57 125.636 389.406ZM123.368 378.102L126.104 377.49C126.788 380.154 127.472 383.502 127.724 385.734L124.772 386.418C124.592 384.186 123.944 380.73 123.368 378.102ZM133.592 377.238L136.94 377.994C136.04 380.874 135.032 384.294 134.204 386.454L131.576 385.77C132.332 383.466 133.196 379.83 133.592 377.238ZM130.82 406.29L130.064 402.798L130.856 401.574L136.436 397.542C136.724 398.478 137.372 399.81 137.768 400.494C132.368 404.598 131.36 405.498 130.82 406.29ZM130.82 406.29C130.496 405.57 129.56 404.274 128.984 403.734C129.632 403.158 130.424 402.006 130.424 400.134V389.478H133.916V402.33C133.916 402.33 130.82 404.994 130.82 406.29ZM176.396 386.346V388.182H186.656V386.346H176.396ZM176.396 381.558V383.358H186.656V381.558H176.396ZM172.472 378.354H190.76V391.386H172.472V378.354ZM179.24 374.754L183.812 375.654C182.876 377.634 181.832 379.614 181.004 380.946L177.584 379.974C178.196 378.462 178.88 376.338 179.24 374.754ZM179.42 394.482H183.848V405.714H179.42V394.482ZM171.356 392.97H191.876V396.39H171.356V392.97ZM172.688 398.442H190.508V401.79H172.688V398.442ZM170.06 404.058H192.56V407.766H170.06V404.058ZM164.012 375.186H167.828V387.534C167.828 394.914 167.18 402.726 161.672 408.558C161.06 407.622 159.728 406.182 158.864 405.534C163.508 400.53 164.012 393.762 164.012 387.498V375.186ZM160.52 382.314L163.292 382.638C163.292 385.698 162.788 389.802 161.888 392.466L159.044 391.422C159.908 389.118 160.412 385.23 160.52 382.314ZM169.448 381.306L172.868 382.566C171.896 385.158 170.888 388.218 170.024 390.126L167.396 389.046C168.152 386.958 169.016 383.682 169.448 381.306ZM167.252 394.59C168.152 395.598 171.212 399.954 171.932 400.926L169.016 403.914C168.008 401.862 165.776 398.226 164.624 396.498L167.252 394.59ZM195.944 389.082H228.2V393.366H195.944V389.082ZM198.644 380.19H225.572V384.474H198.644V380.19ZM209.66 374.79H214.232V408.594H209.66V374.79ZM208.904 391.566L212.648 393.114C209.192 398.838 203.576 404.058 197.888 407.01C197.168 405.93 195.728 404.202 194.72 403.302C200.264 400.89 205.952 396.21 208.904 391.566ZM215.024 391.602C217.94 396.246 223.628 400.926 229.136 403.302C228.128 404.166 226.688 405.93 225.968 407.082C220.388 404.13 214.88 398.802 211.424 393.114L215.024 391.602ZM231.836 390.522H264.2V394.662H231.836V390.522ZM233.528 378.714H262.76V382.818H233.528V378.714ZM245.696 374.754H250.304V408.558H245.696V374.754ZM256.424 382.71L260.96 384.042C259.628 386.526 258.188 389.082 257.036 390.702L253.292 389.478C254.408 387.642 255.74 384.834 256.424 382.71ZM235.94 384.258L239.792 382.818C241.124 384.762 242.42 387.39 242.888 389.154L238.748 390.774C238.388 389.046 237.164 386.31 235.94 384.258ZM244.976 392.178L248.468 393.582C245.084 399.27 239.504 404.454 233.888 407.298C233.204 406.254 231.8 404.562 230.828 403.698C236.372 401.358 242.06 396.786 244.976 392.178ZM251.132 392.25C254.012 396.822 259.628 401.43 265.136 403.77C264.128 404.634 262.76 406.29 262.076 407.406C256.46 404.562 251.024 399.306 247.64 393.654L251.132 392.25Z" fill="#0D0140"/>
<path fill-rule="evenodd" clip-rule="evenodd" d="M176.318 23.9127C136.773 25.3997 97.3922 31.2723 66.859 56.3314C33.1195 84.022 2.44897 121.789 4.06082 165.287C5.64172 207.951 39.9982 241.329 74.6466 266.491C103.891 287.729 140.244 293.386 176.318 290.384C209.02 287.662 241.074 275.785 262.298 250.872C282.113 227.613 278.133 195.413 282.891 165.287C289.273 124.871 319.04 80.5004 294.371 47.7764C269.318 14.5413 218.031 22.3442 176.318 23.9127Z" fill="#F5733D"/>
<path d="M27.036 268.315L26.5655 256.63C21.6606 253.734 16.1899 252.205 10.6283 252.174C18.2827 259.086 17.3261 272.41 22.5156 281.705C24.1542 284.591 26.3597 287.032 28.9687 288.848C31.5776 290.664 34.523 291.808 37.5867 292.195L43.9922 296.527C44.8711 291.115 44.6773 285.557 43.4242 280.236C42.171 274.914 39.8883 269.956 36.7333 265.703C34.9419 263.337 32.8879 261.229 30.6196 259.429C29.0855 263.897 27.036 268.315 27.036 268.315Z" fill="#130160"/>
<path d="M43.54 290.514L49.3404 290.513L52.0996 265.803L43.5391 265.804L43.54 290.514Z" fill="#FFB6B6"/>
<path d="M42.0615 296.724L60.7632 296.723V296.462C60.763 294.329 59.9961 292.284 58.631 290.777C57.2659 289.269 55.4145 288.422 53.484 288.422H53.4835L50.0674 285.559L43.6936 288.422L42.0611 288.422L42.0615 296.724Z" fill="#2F2E41"/>
<path d="M70.4868 290.514L76.2867 290.513L79.0459 265.803L70.4854 265.804L70.4868 290.514Z" fill="#FFB6B6"/>
<path d="M69.0072 296.724L87.709 296.723V296.462C87.7088 294.329 86.9419 292.284 85.5768 290.777C84.2117 289.269 82.3602 288.422 80.4297 288.422H80.4293L77.0131 285.559L70.6394 288.422L69.0068 288.422L69.0072 296.724Z" fill="#2F2E41"/>
<path d="M72.997 155.424L35.2709 156.465C28.1059 160.764 27.9972 170.067 30.3448 181.113C30.3448 181.113 29.5523 187.678 31.1373 189.429C32.7224 191.179 33.5149 191.179 32.7224 194.243C31.9298 197.307 36.1171 202.311 35.6085 202.873C35.0999 203.434 33.9112 206.498 33.9112 206.498L37.8738 231.446C37.8738 231.446 40.6477 274.776 41.4402 275.651C42.2327 276.527 43.0253 275.651 42.2327 277.84C41.4402 280.028 40.6477 279.153 41.4402 280.028C42.1422 280.864 42.8036 281.741 43.4215 282.654H53.0021C53.0021 282.654 53.7244 278.277 53.7244 277.84C53.7244 277.402 54.5169 274.776 54.5169 274.338C54.5169 273.901 53.8164 273.127 53.8164 273.127C53.5744 272.237 53.4109 271.324 53.3281 270.399C53.3281 269.524 50.9505 235.823 50.9505 235.823L55.7057 192.055L67.1974 234.947C67.1974 234.947 67.1974 272.588 67.9899 273.463C68.7824 274.338 68.7824 273.901 68.3862 275.651C67.9899 277.402 66.4048 276.964 67.5936 278.277C68.7824 279.59 69.1787 277.402 68.7824 279.59L68.3862 281.779L80.2741 281.967C80.2741 281.967 81.8592 278.277 81.0666 276.964C80.2741 275.651 80.3217 276.01 81.2886 273.861C82.2554 271.712 82.6517 271.275 82.2555 270.837C81.8592 270.399 81.8592 268.071 81.8592 268.071L79.8779 226.194C79.8779 226.194 79.4816 181.988 79.4816 180.675C79.4517 179.999 79.5644 179.325 79.8108 178.706V176.924L78.2928 170.608L72.997 155.424Z" fill="#69687F"/>
<path d="M50.3345 68.7796C43.8607 68.7796 38.6128 62.9832 38.6128 55.8329C38.6128 48.6826 43.8607 42.8861 50.3345 42.8861C56.8082 42.8861 62.0562 48.6826 62.0562 55.8329C62.0562 62.9832 56.8082 68.7796 50.3345 68.7796Z" fill="#FFB6B6"/>
<path d="M56.1955 77.3366C58.7208 78.9948 60.2314 82.0415 61.0986 85.1418C62.704 90.8816 63.6704 96.8161 63.9763 102.814L64.8923 120.771L76.2358 159.006C66.4047 168.194 29.4511 161.094 29.4511 161.094C29.4511 161.094 28.3167 160.677 29.4511 159.424C30.5854 158.171 31.6898 159.281 30.5554 158.028C29.4211 156.775 30.203 158.171 30.5811 156.918C30.9593 155.665 30.5811 156.5 30.203 156.083C29.8249 155.665 33.1302 151.906 33.1302 151.906L30.1053 129.959L26.3241 85.6893C30.8615 79.4247 39.9869 75.7318 39.9869 75.7318L42.3448 71.0441L54.1342 72.0858L56.1955 77.3366Z" fill="#130160"/>
<path d="M57.8029 48.2348C57.3494 48.2387 56.898 48.3041 56.4589 48.4296C55.5932 48.6594 54.7141 48.8223 53.8279 48.9169C51.1143 49.1989 48.5645 50.4771 46.5858 52.5474C44.6071 54.6177 43.3136 57.3606 42.9119 60.3382C42.2307 59.6823 40.6808 58.4757 39.4105 59.5971C39.3912 59.6149 39.3799 59.624 39.3352 59.6006C38.4915 59.1586 36.9939 53.7175 36.9485 48.9268C36.9246 46.384 37.287 43.137 39.1489 42.1088L39.247 42.0546L39.2728 41.9369C39.3971 41.3649 40.787 40.3885 43.2025 39.6286C47.5922 38.2476 54.1356 35.5574 57.8202 39.5165C58.0991 40.8512 59.0063 43.7075 59.9227 44.0313C60.9375 44.3896 61.8139 44.6989 61.952 46.0738C62.0674 48.0303 62.059 49.9934 61.9269 51.9487C61.5831 50.7522 60.9081 49.705 59.9971 48.9545C59.3494 48.4729 58.5837 48.2217 57.8029 48.2348Z" fill="#2F2E41"/>
<path d="M79.6206 119.771L60.4732 106.227L70.1171 92.0675L79.6399 105.006L109.311 107.016C110.091 106.164 111.079 105.581 112.154 105.338C113.23 105.096 114.345 105.204 115.366 105.65C116.386 106.095 117.267 106.859 117.901 107.849C118.535 108.838 118.895 110.009 118.937 111.22C118.978 112.432 118.7 113.63 118.136 114.669C117.572 115.709 116.746 116.545 115.759 117.075C114.772 117.605 113.667 117.806 112.578 117.654C111.489 117.502 110.464 117.004 109.627 116.22L79.6206 119.771Z" fill="#FFB6B6"/>
<path d="M42.7011 87.3222C41.5898 94.7506 62.576 108.936 62.576 108.936C62.5763 107.192 75.1019 120.355 75.6673 118.909C77.2741 114.799 78.4039 105.065 80.6492 103.507C81.9333 102.616 72.9157 94.2454 72.9157 94.2454C72.9157 94.2454 68.1955 88.9931 62.0011 82.3681C60.2814 80.4593 58.1523 79.062 55.8121 78.3065C53.4719 77.551 50.9967 77.4617 48.6168 78.0469C48.6168 78.0469 43.8124 79.8938 42.7011 87.3222Z" fill="#130160"/>
<path d="M3.23559 123.326L15.9008 102.469L28.5137 113.419L16.6007 123.66L14.1531 156.382C14.9078 157.262 15.4145 158.366 15.6113 159.558C15.8081 160.75 15.6866 161.98 15.2615 163.098C14.8364 164.215 14.1261 165.172 13.2173 165.851C12.3085 166.53 11.2404 166.903 10.1432 166.923C9.04602 166.943 7.96717 166.611 7.03822 165.966C6.10926 165.32 5.37035 164.391 4.91155 163.29C4.45274 162.189 4.29388 160.964 4.45433 159.765C4.61479 158.566 5.08764 157.444 5.81521 156.537L3.23559 123.326Z" fill="#FFB6B6"/>
<path d="M33.3894 83.2453C26.689 81.8609 13.4047 104.735 13.4047 104.735C14.9829 104.772 2.80322 118.325 4.10015 118.98C7.78617 120.841 16.5733 122.295 17.9361 124.807C18.7154 126.244 26.4829 116.464 26.4829 116.464C26.4829 116.464 31.3371 111.363 37.465 104.663C39.2292 102.804 40.5391 100.482 41.2725 97.9142C42.0059 95.346 42.1392 92.6146 41.6598 89.9743C41.6598 89.9743 40.0898 84.6298 33.3894 83.2453Z" fill="#130160"/>
<path d="M-9.15527e-05 296.826C-0.000305176 296.908 0.0140686 296.989 0.0421906 297.064C0.0703125 297.139 0.111633 297.208 0.163803 297.265C0.215958 297.323 0.277924 297.368 0.3461 297.4C0.414291 297.431 0.48735 297.446 0.561111 297.446H132.739C132.888 297.446 133.031 297.381 133.136 297.265C133.241 297.148 133.3 296.991 133.3 296.826C133.3 296.662 133.241 296.504 133.136 296.388C133.031 296.272 132.888 296.207 132.739 296.207H0.561111C0.48735 296.206 0.414291 296.222 0.3461 296.253C0.277924 296.284 0.215958 296.33 0.163803 296.388C0.111633 296.445 0.0703125 296.514 0.0421906 296.589C0.0140686 296.664 -0.000305176 296.745 -9.15527e-05 296.826Z" fill="#130160"/>
<path d="M119.252 112.343H270.479C272.842 112.346 275.107 113.384 276.778 115.229C278.448 117.075 279.388 119.577 279.391 122.186V226.18C279.388 228.79 278.448 231.291 276.778 233.137C275.107 234.982 272.842 236.02 270.479 236.023H119.252C116.889 236.02 114.624 234.982 112.953 233.137C111.282 231.291 110.343 228.79 110.34 226.18V122.186C110.343 119.577 111.282 117.075 112.953 115.229C114.624 113.384 116.889 112.346 119.252 112.343Z" fill="#FFC107"/>
<path d="M119.252 112.343H270.479C272.842 112.346 275.107 113.384 276.778 115.229C278.448 117.075 279.388 119.577 279.391 122.186V226.18C279.388 228.79 278.448 231.291 276.778 233.137C275.107 234.982 272.842 236.02 270.479 236.023H119.252C116.889 236.02 114.624 234.982 112.953 233.137C111.282 231.291 110.343 228.79 110.34 226.18V122.186C110.343 119.577 111.282 117.075 112.953 115.229C114.624 113.384 116.889 112.346 119.252 112.343ZM116.327 187.043C116.363 197.63 120.155 207.78 126.888 215.315C133.622 222.85 142.761 227.17 152.345 227.348C167.69 227.569 143.855 227.655 162.362 227.655C204.681 227.655 248.808 227.208 265.273 226.919C267.439 226.87 269.502 225.887 271.021 224.18C272.54 222.474 273.395 220.18 273.404 217.786V122.194C273.403 121.337 273.095 120.515 272.547 119.908C271.999 119.302 271.255 118.959 270.48 118.956H119.258C118.482 118.957 117.738 119.298 117.189 119.903C116.64 120.508 116.33 121.328 116.327 122.185V187.043Z" fill="#130160"/>
<path d="M137.868 52.4602H253.087C254.106 52.4618 255.101 52.8109 255.934 53.4598C256.767 54.1087 257.398 55.0258 257.742 56.0859L275.537 111.228C275.802 112.051 275.885 112.933 275.778 113.798C275.671 114.664 275.378 115.489 274.923 116.203C274.467 116.918 273.863 117.501 273.161 117.904C272.459 118.307 271.68 118.518 270.889 118.519L116.361 118.822H116.354C115.536 118.822 114.731 118.598 114.011 118.17C113.291 117.741 112.678 117.123 112.228 116.368C111.778 115.614 111.504 114.749 111.432 113.849C111.359 112.949 111.489 112.044 111.812 111.214L112.081 111.341L111.812 111.214L133.325 55.7684C133.706 54.7861 134.339 53.9488 135.147 53.3606C135.954 52.7725 136.9 52.4594 137.868 52.4602Z" fill="#130160"/>
<path d="M111.411 112.411C111.412 113.151 111.548 113.882 111.811 114.562L133.324 157.242C133.707 158.222 134.341 159.057 135.148 159.644C135.956 160.232 136.901 160.545 137.867 160.547H253.085C254.105 160.545 255.1 160.197 255.933 159.548C256.767 158.9 257.399 157.983 257.744 156.923L275.536 114.547C275.754 113.872 275.849 113.156 275.817 112.44C275.784 111.724 275.624 111.022 275.346 110.375C275.067 109.727 274.676 109.147 274.195 108.666C273.713 108.186 273.151 107.815 272.539 107.575C272.01 107.364 271.452 107.256 270.89 107.255L252.014 107.216L244.309 107.201L142.931 107.005L135.222 106.99L116.359 106.951H116.355C115.044 106.951 113.787 107.527 112.86 108.55C111.932 109.574 111.412 110.963 111.411 112.411Z" fill="#130160"/>
<path d="M259.142 190.35C256.857 190.35 225.482 192.468 225.482 194.992C225.482 197.515 256.857 199.489 259.142 199.489C260.239 199.489 261.291 199.008 262.067 198.151C262.843 197.294 263.279 196.132 263.279 194.92C263.279 193.708 262.843 192.546 262.067 191.689C261.291 190.832 260.239 190.35 259.142 190.35Z" fill="#130160"/>
<path d="M147.408 32.2819C148.64 30.922 150.253 30.211 151.877 30.2089H205.115C214.759 30.2216 224.061 34.4565 230.964 42.0804C237.874 49.713 241.798 60.11 241.81 71.0005V158.047H145.431V37.5853C145.434 35.5536 146.169 33.65 147.408 32.2819Z" fill="#FFFBFB" stroke="black" stroke-width="5"/>
<path d="M160.202 149.626H227.038C227.616 149.626 228.17 149.88 228.578 150.331C228.987 150.782 229.216 151.394 229.216 152.032C229.216 152.67 228.987 153.282 228.578 153.733C228.17 154.185 227.616 154.438 227.038 154.438H160.202C159.624 154.438 159.07 154.185 158.662 153.733C158.253 153.282 158.024 152.67 158.024 152.032C158.024 151.394 158.253 150.782 158.662 150.331C159.07 149.88 159.624 149.626 160.202 149.626Z" fill="#E4E4E4"/>
<path d="M227.038 140.11H160.202C159.624 140.11 159.069 140.364 158.66 140.815C158.251 141.267 158.021 141.88 158.021 142.518C158.021 143.157 158.251 143.77 158.66 144.222C159.069 144.673 159.624 144.927 160.202 144.927H227.038C227.616 144.927 228.171 144.673 228.58 144.222C228.989 143.77 229.218 143.157 229.218 142.518C229.218 141.88 228.989 141.267 228.58 140.815C228.171 140.364 227.616 140.11 227.038 140.11Z" fill="#E4E4E4"/>
<path d="M189.175 130.599H160.203C159.625 130.599 159.071 130.852 158.662 131.303C158.254 131.755 158.024 132.367 158.024 133.005C158.024 133.643 158.254 134.255 158.662 134.706C159.071 135.157 159.625 135.411 160.203 135.411H189.175C189.753 135.411 190.307 135.157 190.715 134.706C191.124 134.255 191.353 133.643 191.353 133.005C191.353 132.367 191.124 131.755 190.715 131.303C190.307 130.852 189.753 130.599 189.175 130.599Z" fill="#E4E4E4"/>
<path d="M227.038 110.673H160.202C159.624 110.673 159.069 110.927 158.66 111.378C158.251 111.83 158.021 112.443 158.021 113.081C158.021 113.72 158.251 114.333 158.66 114.784C159.069 115.236 159.624 115.49 160.202 115.49H227.038C227.616 115.49 228.171 115.236 228.58 114.784C228.989 114.333 229.218 113.72 229.218 113.081C229.218 112.443 228.989 111.83 228.58 111.378C228.171 110.927 227.616 110.673 227.038 110.673Z" fill="#E4E4E4"/>
<path d="M227.039 101.162H160.203C159.625 101.162 159.071 101.415 158.662 101.866C158.254 102.318 158.024 102.93 158.024 103.568C158.024 104.206 158.254 104.818 158.662 105.269C159.071 105.72 159.625 105.974 160.203 105.974H227.039C227.616 105.974 228.17 105.72 228.579 105.269C228.987 104.818 229.217 104.206 229.217 103.568C229.217 102.93 228.987 102.318 228.579 101.866C228.17 101.415 227.616 101.162 227.039 101.162Z" fill="#E4E4E4"/>
<path d="M189.174 91.6456H160.202C159.624 91.6456 159.069 91.8994 158.66 92.3511C158.251 92.8027 158.021 93.4153 158.021 94.0541C158.021 94.6929 158.251 95.3055 158.66 95.7572C159.069 96.2088 159.624 96.4626 160.202 96.4626H189.174C189.753 96.4626 190.307 96.2088 190.716 95.7572C191.125 95.3055 191.355 94.6929 191.355 94.0541C191.355 93.4153 191.125 92.8027 190.716 92.3511C190.307 91.8994 189.753 91.6456 189.174 91.6456Z" fill="#E4E4E4"/>
<path d="M227.038 71.7197H160.202C159.624 71.7197 159.069 71.9735 158.66 72.4252C158.251 72.8768 158.021 73.4894 158.021 74.1282C158.021 74.767 158.251 75.3796 158.66 75.8313C159.069 76.283 159.624 76.5367 160.202 76.5367H227.038C227.616 76.5367 228.171 76.283 228.58 75.8313C228.989 75.3796 229.218 74.767 229.218 74.1282C229.218 73.4894 228.989 72.8768 228.58 72.4252C228.171 71.9735 227.616 71.7197 227.038 71.7197Z" fill="#130160"/>
<path d="M227.038 62.2085H160.202C159.624 62.2085 159.069 62.4622 158.66 62.9139C158.251 63.3656 158.021 63.9782 158.021 64.617C158.021 65.2558 158.251 65.8684 158.66 66.3201C159.069 66.7717 159.624 67.0255 160.202 67.0255H227.038C227.616 67.0255 228.171 66.7717 228.58 66.3201C228.989 65.8684 229.218 65.2558 229.218 64.617C229.218 63.9782 228.989 63.3656 228.58 62.9139C228.171 62.4622 227.616 62.2085 227.038 62.2085Z" fill="#130160"/>
<path d="M189.174 52.6924H160.202C159.624 52.6924 159.069 52.9461 158.66 53.3978C158.251 53.8495 158.021 54.4621 158.021 55.1009C158.021 55.7397 158.251 56.3523 158.66 56.8039C159.069 57.2556 159.624 57.5094 160.202 57.5094H189.174C189.753 57.5094 190.307 57.2556 190.716 56.8039C191.125 56.3523 191.355 55.7397 191.355 55.1009C191.355 54.4621 191.125 53.8495 190.716 53.3978C190.307 52.9461 189.753 52.6924 189.174 52.6924Z" fill="#130160"/>
<path d="M251.784 37.478C261.154 37.478 268.75 29.0882 268.75 18.739C268.75 8.38973 261.154 0 251.784 0C242.414 0 234.818 8.38973 234.818 18.739C234.818 29.0882 242.414 37.478 251.784 37.478Z" fill="#47C8CB"/>
<path d="M249.469 28.4917C249.176 28.4917 248.887 28.4164 248.625 28.2716C248.363 28.1269 248.135 27.9167 247.96 27.6578L243.331 20.8413C243.182 20.6224 243.073 20.373 243.011 20.1075C242.949 19.842 242.935 19.5656 242.969 19.2941C243.004 19.0226 243.087 18.7613 243.213 18.5253C243.34 18.2893 243.507 18.0831 243.706 17.9185C243.904 17.754 244.13 17.6344 244.371 17.5665C244.611 17.4987 244.862 17.4839 245.107 17.5231C245.353 17.5622 245.589 17.6546 245.803 17.7948C246.016 17.935 246.202 18.1203 246.351 18.3401L249.379 22.7993L257.156 9.91407C257.434 9.45407 257.866 9.13475 258.356 9.02633C258.847 8.91791 259.357 9.02928 259.773 9.33594C260.19 9.6426 260.479 10.1194 260.577 10.6615C260.675 11.2036 260.574 11.7666 260.297 12.2266L251.04 27.5635C250.872 27.8408 250.647 28.0698 250.383 28.2312C250.119 28.3926 249.824 28.4817 249.522 28.4911C249.504 28.4914 249.487 28.4917 249.469 28.4917Z" fill="white"/>
</svg>
