<svg width="15" height="20" viewBox="0 0 15 20" fill="none" xmlns="http://www.w3.org/2000/svg">
<path d="M7.99919 13.3861C7.97605 13.3577 7.986 13.3269 8.02142 13.3175L11.0405 12.5085C11.0759 12.499 11.1234 12.5144 11.1466 12.5428L14.3319 16.4572C14.367 16.5004 14.3243 16.5411 14.2603 16.5253L12.4489 16.0783C12.1987 16.0166 11.9652 16.0791 11.8871 16.2288L11.3214 17.3127C11.3015 17.351 11.2196 17.3437 11.1845 17.3005L7.99919 13.3861Z" fill="#DD2951" stroke="#DC244D" stroke-width="0.398377"/>
<path d="M4.02896 12.5583C4.0542 12.5316 4.10271 12.5199 4.13731 12.5321L7.08621 13.5681C7.12081 13.5803 7.12839 13.6117 7.10316 13.6383L3.64228 17.286C3.60397 17.3264 3.52193 17.3275 3.50483 17.2879L3.02064 16.1659C2.95391 16.0112 2.72651 15.9313 2.47305 15.9735L0.634149 16.2793C0.569208 16.2901 0.529779 16.2463 0.56809 16.2059L4.02896 12.5583Z" fill="#E22850" stroke="#E32951" stroke-width="0.398377"/>
<circle cx="7.51271" cy="6.79198" r="6.67796" fill="#9291B0"/>
<circle cx="7.51271" cy="6.79192" r="5.00847" fill="#BDC4D2"/>
<path d="M6.20835 7.38211C6.32945 7.28595 6.38465 7.24143 6.37397 7.24855C6.723 6.96006 6.99724 6.72322 7.19669 6.53801C7.3997 6.35281 7.57066 6.15871 7.70956 5.9557C7.84846 5.75269 7.91791 5.55502 7.91791 5.36269C7.91791 5.21667 7.88408 5.1027 7.81641 5.02078C7.74874 4.93887 7.64723 4.89791 7.51189 4.89791C7.37655 4.89791 7.2697 4.94955 7.19135 5.05284C7.11656 5.15256 7.07916 5.29502 7.07916 5.48023H6.19767C6.20479 5.17749 6.2689 4.92462 6.38999 4.72161C6.51465 4.5186 6.6767 4.36901 6.87615 4.27285C7.07916 4.17669 7.30354 4.12861 7.54929 4.12861C7.97312 4.12861 8.29188 4.23723 8.50557 4.45449C8.72283 4.67175 8.83146 4.95489 8.83146 5.30393C8.83146 5.68502 8.70146 6.03939 8.44146 6.36706C8.18147 6.69116 7.85024 7.00814 7.44778 7.318H8.89022V8.06059H6.20835V7.38211Z" fill="#697078"/>
</svg>
