<svg width="15" height="19" viewBox="0 0 15 19" fill="none" xmlns="http://www.w3.org/2000/svg">
<path d="M7.88342 13.6078C7.85818 13.5812 7.86577 13.5498 7.90036 13.5377L10.8493 12.5016C10.8839 12.4895 10.9324 12.5012 10.9576 12.5278L14.4311 16.1888C14.4695 16.2292 14.4299 16.273 14.3649 16.2622L12.5248 15.9541C12.2707 15.9116 12.0426 15.9917 11.9761 16.1469L11.4944 17.2707C11.4774 17.3103 11.3953 17.3093 11.3569 17.2689L7.88342 13.6078Z" fill="#1EA089" stroke="#19A28B" stroke-width="0.398377"/>
<path d="M4.02895 12.5277C4.05419 12.5011 4.10269 12.4894 4.13729 12.5016L7.0862 13.5376C7.12079 13.5498 7.12838 13.5812 7.10314 13.6078L3.64227 17.2555C3.60396 17.2959 3.52191 17.297 3.50481 17.2574L3.02063 16.1353C2.95389 15.9807 2.7265 15.9008 2.47304 15.943L0.634134 16.2488C0.569193 16.2596 0.529763 16.2158 0.568074 16.1754L4.02895 12.5277Z" fill="#17A68E" stroke="#1CA08A" stroke-width="0.398377"/>
<circle cx="7.67796" cy="6.67796" r="6.67796" fill="#AC767F"/>
<circle cx="7.67797" cy="6.67791" r="5.00847" fill="#C1A19C"/>
<path d="M6.43771 5.2006C6.45196 4.81951 6.57662 4.52568 6.81168 4.31911C7.04674 4.11254 7.36551 4.00925 7.76796 4.00925C8.03508 4.00925 8.26302 4.05555 8.45179 4.14815C8.64411 4.24075 8.78836 4.36719 8.88452 4.52746C8.98424 4.68773 9.03411 4.86759 9.03411 5.06704C9.03411 5.3021 8.97534 5.49443 8.85781 5.64401C8.74027 5.79004 8.60315 5.88976 8.44644 5.94319V5.96456C8.64945 6.03223 8.80973 6.14442 8.92726 6.30113C9.04479 6.45784 9.10356 6.65907 9.10356 6.90481C9.10356 7.12563 9.05191 7.32152 8.94863 7.49247C8.8489 7.65987 8.7011 7.79165 8.50521 7.88781C8.31289 7.98397 8.08316 8.03205 7.81604 8.03205C7.38866 8.03205 7.04674 7.92699 6.79031 7.71685C6.53744 7.50672 6.40388 7.18974 6.38963 6.76591H7.27647C7.28003 6.92262 7.32455 7.04728 7.41002 7.13988C7.4955 7.22892 7.62016 7.27344 7.78399 7.27344C7.92289 7.27344 8.02974 7.23426 8.10453 7.15591C8.18289 7.07399 8.22207 6.96714 8.22207 6.83536C8.22207 6.66441 8.16686 6.54153 8.05645 6.46674C7.9496 6.38839 7.77687 6.34921 7.53824 6.34921H7.36729V5.60662H7.53824C7.71988 5.60662 7.86591 5.57634 7.97632 5.5158C8.09029 5.45169 8.14727 5.3395 8.14727 5.17923C8.14727 5.05101 8.11166 4.95129 8.04042 4.88006C7.96919 4.80882 7.87125 4.77321 7.74659 4.77321C7.61125 4.77321 7.50975 4.81417 7.44208 4.89608C7.37797 4.978 7.34057 5.0795 7.32989 5.2006H6.43771Z" fill="#A47178"/>
</svg>
